<svg width="60" height="38" viewBox="0 0 60 38" fill="none" xmlns="http://www.w3.org/2000/svg">
<path d="M59.9994 13.3403C59.9991 13.2888 59.9965 13.2376 59.9917 13.1863C59.9905 13.1738 59.989 13.1612 59.9875 13.1487C59.9824 13.1056 59.976 13.0626 59.9678 13.0197C59.9658 13.0098 59.9646 13 59.9626 12.9901C59.953 12.9443 59.9408 12.8991 59.9275 12.8538C59.9223 12.8367 59.917 12.8196 59.9115 12.8028C59.8991 12.765 59.8854 12.7275 59.8703 12.6904C59.8636 12.6742 59.8568 12.6584 59.8498 12.6424C59.8384 12.6165 59.827 12.5909 59.8144 12.5654L54.1658 1.26859C53.8681 0.673046 53.2595 0.296875 52.5936 0.296875H7.40635C6.74049 0.296875 6.13194 0.673046 5.83417 1.26859L0.185625 12.5654C0.173086 12.5909 0.161601 12.6167 0.150117 12.6424C0.143203 12.6584 0.136406 12.6742 0.129726 12.6904C0.114609 12.7275 0.101133 12.765 0.0884764 12.8028C0.0829686 12.8197 0.0776952 12.8367 0.0725389 12.8538C0.0591796 12.8991 0.0469921 12.9444 0.0373827 12.9901C0.0353906 13 0.0342187 13.0098 0.0322265 13.0197C0.0241406 13.0624 0.0174609 13.1054 0.012539 13.1487C0.0110156 13.1612 0.00949217 13.1738 0.0083203 13.1863C0.00351562 13.2376 0.000820311 13.2888 0.000585936 13.3403C0.000585936 13.344 0 13.3477 0 13.3515V35.9452C0 36.916 0.78703 37.7031 1.75781 37.7031H58.2421C59.2129 37.7031 59.9999 36.916 59.9999 35.9452V13.3514C60 13.3477 59.9994 13.344 59.9994 13.3403ZM8.4928 3.81238H51.5074L55.3981 11.5936H41.2969C40.3261 11.5936 39.5391 12.3806 39.5391 13.3514C39.5391 18.6113 35.2598 22.8904 30.0001 22.8904C24.7403 22.8904 20.461 18.6111 20.461 13.3514C20.461 12.3806 19.674 11.5936 18.7032 11.5936H4.60218L8.4928 3.81238Z" fill="#C4C3C2"/>
</svg>
