<svg xmlns="http://www.w3.org/2000/svg" viewBox="0 0 74.43 80.26"><defs><style>.cls-1{fill:#eaf3fa;}.cls-2{fill:#cbe2f4;}.cls-3{fill:#0358af;}.cls-4{fill:#0271cd;}.cls-5{fill:#cce3f4;}.cls-6{fill:#e1e9f0;}.cls-7{fill:#cbe1f3;}.cls-8{fill:#d0d1d2;}.cls-9{fill:#ced1d3;}.cls-10{fill:#d2d3d4;}.cls-11{fill:#a4a6a9;}.cls-12{fill:#a7abaf;}.cls-13{fill:#eda126;}.cls-14{fill:#f2b250;}</style></defs><title>Asset 21</title><g id="Layer_2" data-name="Layer 2"><g id="Layer_1-2" data-name="Layer 1"><path class="cls-1" d="M14.69.29C15-.1,15.45,0,15.85,0h16q0,11.61,0,23.23H9.22c-1,0-1.48.55-1.1,1.28s.9.35,1.36.35c7.45,0,14.9,0,22.35,0,0,2.11,0,4.22,0,6.33H9.21c-1,0-1.48.57-1.09,1.3s.9.34,1.36.34l22.35,0v6.33H24.11c-5,0-9.93,0-14.9,0-.89,0-1.35.27-1.12,1.18s.91.47,1.4.47q11.18,0,22.35,0v6.36H24.39c-5.06,0-10.11,0-15.17,0-.89,0-1.36.26-1.13,1.18S9,49,9.49,49l22.35,0v6.33l-8.28,0c-4.78,0-9.57,0-14.35,0-1,0-1.48.58-1.09,1.3S9,57,9.49,57q11.18,0,22.35,0c0,2.69,0,5.39.05,8.08,0,.07,0,.14-.05.22a30.07,30.07,0,0,0-5.57,3c-.77.47-1.23.54-1.42-.53a13,13,0,0,0-.61-2.11c-.13-.39-.29-.84-.8-.84s-.78.39-1,.84a17.66,17.66,0,0,1-.87,1.87C20.73,69,19,69.77,17.77,69.31c-1.08-.4-1.2-.88-.5-1.75a8.89,8.89,0,0,0,1.82-4.25,1.89,1.89,0,0,0-.9-2c-.78-.44-1.37.06-1.92.62a5.93,5.93,0,0,0-1.59,4.68c0,1.2-.52,1.64-1.7,1.47a2.13,2.13,0,0,1-1.22-.59c-.42-.44-.88-.61-1.29-.12s-.08,1,.38,1.39a4.63,4.63,0,0,0,3.7.66,1.26,1.26,0,0,1,1.27.42c2,2,4.58,1.72,6.28-.55.3-.4.5-.88,1-1,.44,2.45,1.17,2.81,3.36,1.64q2.67-1.44,5.32-2.9,0,6.62,0,13.23H.3q0-32.78,0-65.55c4.36,0,8.72,0,13.08,0,1,0,1.33-.31,1.32-1.33C14.66,9,14.69,4.65,14.69.29Z"/><path class="cls-2" d="M31.85,23.26q0-11.63,0-23.23c10.32,0,20.64,0,31,0,1.07,0,1.42.28,1.41,1.39-.06,4.88,0,9.77,0,14.65,0,.53-.18,1.13.41,1.51L55.73,31.38c-1.79,0-3.58-.08-5.37-.08-6.16,0-12.31.05-18.46.07l-.06-.1c0-2.11,0-4.22,0-6.33l.28,0h22.8c.55,0,1.25.22,1.27-.77s-.61-.85-1.21-.85l-22.8,0Z"/><path class="cls-2" d="M31.89,65.08c0-2.69,0-5.39-.05-8.08l.05-.09,7.43.08-.33.86a45.14,45.14,0,0,0-.86,8c-.06.31-.31,1,.31.61a53.18,53.18,0,0,0,7.12-4.42c.49-.17.62-.65.87-1,.93-1.37,1.83-2.75,2.74-4.13l5.9.06c.55,0,1.1.07,1.12-.79s-.6-.85-1.2-.85h-4.8L54.24,49c.32,0,.64,0,1,0s.93.07,1-.62-.12-1.07-.87-1c2.77-4.48,5.56-9,8.55-13.29.54.36.33.91.33,1.39q0,21.67,0,43.35c0,1.12-.28,1.49-1.45,1.49-10.31-.05-20.62,0-30.93,0q0-6.61,0-13.23l0-.1a2.83,2.83,0,0,1,1.75,1,5,5,0,0,0,3.16,1.48c.61.07,1.26-.11,1.38-.83.15-.9-.58-.71-1.1-.74a3.39,3.39,0,0,1-2.72-1.62A2.16,2.16,0,0,0,31.89,65.08Z"/><path class="cls-3" d="M63.86,34c-3,4.34-5.78,8.81-8.55,13.29L54.24,49l-4.05,6.38a5.21,5.21,0,0,0-1,1.59c-.91,1.38-1.81,2.76-2.74,4.13-.25.37-.38.85-.87,1l-3.21-2.15c1.87-3,3.73-6,5.63-9q5.37-8.41,10.78-16.82L72.48,12.8c2.12,1.47,2.54,3.59,1.11,5.85-3,4.7-6,9.37-9,14.06C64.33,33.13,64.1,33.59,63.86,34Z"/><path class="cls-4" d="M72.48,12.8,58.76,34.12Q53.36,42.52,48,50.94c-1.9,3-3.76,6-5.63,9h-.23L39,57.85l.33-.86a2.79,2.79,0,0,0,.89-1.62A43.18,43.18,0,0,0,44.45,49a4.23,4.23,0,0,0,1-1.62A52.83,52.83,0,0,0,49.57,41a2.76,2.76,0,0,0,.89-1.62,41.73,41.73,0,0,0,4.13-6.14l1.14-1.81,8.89-13.83c.78-1.19,1.54-2.4,2.34-3.57A3.9,3.9,0,0,1,72.48,12.8Z"/><path class="cls-5" d="M14.69.29c0,4.36,0,8.72,0,13.08,0,1-.29,1.34-1.32,1.33-4.36,0-8.72,0-13.08,0V14.4C4.37,10.29,8.42,6.17,12.51,2.09,13.17,1.43,13.65.51,14.69.29Z"/><path class="cls-6" d="M.3,14.4v.28q0,32.78,0,65.55c-.45-.41-.26-1-.26-1.44q0-31.47,0-63C0,15.35-.15,14.81.3,14.4Z"/><path class="cls-7" d="M54.59,33.19a41.73,41.73,0,0,1-4.13,6.14l-18.57.05-.05-.09V33l.05-.09c.55,0,1.1.06,1.65.06H53C53.53,32.94,54.11,32.77,54.59,33.19Z"/><path class="cls-7" d="M49.57,41a52.83,52.83,0,0,1-4.16,6.41l-13.51.07-.06-.11V41l.05-.1c.55,0,1.1.07,1.65.08Z"/><path class="cls-7" d="M44.45,49a43.18,43.18,0,0,1-4.24,6.39l-8.32.05-.05-.1V49l.05-.11Z"/><path class="cls-8" d="M31.83,67q-2.66,1.45-5.32,2.9c-2.19,1.17-2.92.81-3.36-1.64-.55.13-.75.61-1,1-1.7,2.27-4.29,2.52-6.28.55a1.26,1.26,0,0,0-1.27-.42,4.63,4.63,0,0,1-3.7-.66c-.46-.36-.86-.82-.38-1.39s.87-.32,1.29.12a2.13,2.13,0,0,0,1.22.59c1.18.17,1.74-.27,1.7-1.47a5.93,5.93,0,0,1,1.59-4.68c.55-.56,1.14-1.06,1.92-.62a1.89,1.89,0,0,1,.9,2,8.89,8.89,0,0,1-1.82,4.25c-.7.87-.58,1.35.5,1.75,1.23.46,3-.34,3.82-1.81a17.66,17.66,0,0,0,.87-1.87c.2-.45.45-.84,1-.84s.67.45.8.84a13,13,0,0,1,.61,2.11c.19,1.07.65,1,1.42.53a30.07,30.07,0,0,1,5.57-3l0,1.59ZM17.48,63.38a3.58,3.58,0,0,0-1.39,3.07A5.71,5.71,0,0,0,17.48,63.38Z"/><path class="cls-9" d="M31.85,23.26l.32,0-.06,1.61-.28,0c-7.45,0-14.9,0-22.35,0-.46,0-1.05.26-1.36-.35s.08-1.28,1.1-1.28H31.85Z"/><path class="cls-10" d="M31.83,33l-22.35,0c-.46,0-1,.25-1.36-.34s.07-1.29,1.09-1.3H31.84l.05.1c0,.5,0,1,0,1.5Z"/><path class="cls-10" d="M31.84,41q-11.17,0-22.35,0c-.49,0-1.2.32-1.4-.47s.23-1.18,1.12-1.18c5,0,9.94,0,14.9,0h7.73l.05.09v1.48Z"/><path class="cls-9" d="M31.84,49,9.49,49c-.49,0-1.2.31-1.4-.47s.24-1.19,1.13-1.18c5.06,0,10.11,0,15.17,0h7.45l.06.11c0,.48,0,1,0,1.45Z"/><path class="cls-10" d="M31.84,57Q20.67,57,9.49,57c-.46,0-1.05.25-1.37-.34s.08-1.29,1.09-1.3c4.78,0,9.57,0,14.35,0l8.28,0,.05.09v1.5Z"/><path class="cls-11" d="M31.87,66.89l0-1.59c0-.08,0-.15.05-.22a2.16,2.16,0,0,1,2.45,1.07,3.39,3.39,0,0,0,2.72,1.62c.52,0,1.25-.16,1.1.74-.12.72-.77.9-1.38.83a5,5,0,0,1-3.16-1.48A2.83,2.83,0,0,0,31.87,66.89Z"/><path class="cls-11" d="M32.11,24.92l.06-1.61,22.8,0c.6,0,1.23-.12,1.21.85s-.72.77-1.27.77Z"/><path class="cls-12" d="M31.88,32.87c0-.5,0-1,0-1.5,6.16,0,12.31-.06,18.47-.07,1.79,0,3.58.05,5.37.08l-1.14,1.81c-.48-.42-1.06-.25-1.59-.25H33.53C33,32.93,32.43,32.89,31.88,32.87Z"/><path class="cls-13" d="M42.12,59.92h.23l3.21,2.15a53.18,53.18,0,0,1-7.12,4.42c-.62.37-.37-.3-.31-.61A33.7,33.7,0,0,0,42.12,59.92Z"/><path class="cls-14" d="M42.12,59.92a33.7,33.7,0,0,1-4,6,45.14,45.14,0,0,1,.86-8Z"/><path class="cls-12" d="M31.89,56.91v-1.5l8.32,0A2.79,2.79,0,0,1,39.32,57Z"/><path class="cls-12" d="M49.17,56.92a5.21,5.21,0,0,1,1-1.59H55c.6,0,1.21-.09,1.2.85s-.57.79-1.12.79Z"/><path class="cls-12" d="M54.24,49l1.07-1.63c.75,0,.92.36.87,1s-.53.62-1,.62S54.56,49,54.24,49Z"/><path class="cls-12" d="M31.89,40.86V39.38l18.57-.05A2.76,2.76,0,0,1,49.57,41h-16C33,40.93,32.44,40.89,31.89,40.86Z"/><path class="cls-11" d="M31.89,48.88c0-.48,0-1,0-1.45l13.51-.07a4.23,4.23,0,0,1-1,1.62Z"/><path class="cls-6" d="M17.48,63.38a5.71,5.71,0,0,1-1.39,3.07A3.58,3.58,0,0,1,17.48,63.38Z"/></g></g></svg>