<svg width="81" height="80" viewBox="0 0 81 80" fill="none" xmlns="http://www.w3.org/2000/svg">
<path fill-rule="evenodd" clip-rule="evenodd" d="M40.6619 0.296875C18.7461 0.296875 0.959473 18.0835 0.959473 39.9993C0.959473 61.915 18.7461 79.7016 40.6619 79.7016C62.5776 79.7016 80.3642 61.915 80.3642 39.9993C80.3642 18.0835 62.5776 0.296875 40.6619 0.296875ZM36.6916 20.1481V36.029H20.8107V43.9695H36.6916V59.8504H44.6321V43.9695H60.513V36.029H44.6321V20.1481H36.6916ZM8.89995 39.9993C8.89995 57.508 23.1531 71.7612 40.6619 71.7612C58.1706 71.7612 72.4238 57.508 72.4238 39.9993C72.4238 22.4905 58.1706 8.23735 40.6619 8.23735C23.1531 8.23735 8.89995 22.4905 8.89995 39.9993Z" fill="#E6E6E6"/>
</svg>
