<svg xmlns="http://www.w3.org/2000/svg" viewBox="0 0 162.63 38.9"><defs><style>.cls-1{fill:#d41367;}.cls-2{fill:#ffd040;}.cls-3{fill:#36b0c9;}.cls-4{fill:#2d2a26;}.cls-5{fill:#8e8c89;}</style></defs><title>Asset 8</title><g id="Layer_2" data-name="Layer 2"><g id="Layer_1-2" data-name="Layer 1"><rect class="cls-1" y="7.45" width="8.78" height="22.44" rx="3.18"/><rect class="cls-2" x="11.77" y="13.22" width="8.78" height="16.68" rx="3.18"/><rect class="cls-3" x="23.55" width="8.78" height="29.9" rx="3.18"/><path class="cls-4" d="M53.8,13.67c-3.66,0-5.21,3.91-5.21,9v5.25a1.85,1.85,0,1,1-3.7,0V12.21a1.85,1.85,0,1,1,3.7,0v2.6c1-3.34,2.81-4.68,5.29-4.68,1.38,0,3.66.29,3.34,2.28-.21,1.18-1.27,1.42-2.57,1.3A6.34,6.34,0,0,0,53.8,13.67Z"/><path class="cls-4" d="M80.57,21.44h-14a5.89,5.89,0,0,0,6.15,5.17,5.72,5.72,0,0,0,4.84-2A1.89,1.89,0,0,1,80,24.13a1.65,1.65,0,0,1,.33,2.32A9.57,9.57,0,0,1,72.6,30c-5.42,0-9.73-3.95-9.73-10a9.41,9.41,0,0,1,9.73-9.85C78,10.13,82,14,82,20A1.46,1.46,0,0,1,80.57,21.44Zm-2.2-2.89a5.57,5.57,0,0,0-5.77-5.08,5.76,5.76,0,0,0-6,5.08Z"/><path class="cls-4" d="M105.68,26.61c-1.27,2.16-4,3.34-6.68,3.34A9.53,9.53,0,0,1,89.36,20,9.47,9.47,0,0,1,99,10.13c2.65,0,5.41,1.1,6.68,3.26V12.21a1.85,1.85,0,1,1,3.7,0V27.87a1.85,1.85,0,1,1-3.7,0ZM99.33,13.75A6,6,0,0,0,93.14,20a6.25,6.25,0,1,0,12.5,0A6.13,6.13,0,0,0,99.33,13.75Z"/><path class="cls-4" d="M123.05,27.87a1.85,1.85,0,1,1-3.7,0v-26a1.85,1.85,0,1,1,3.7,0Z"/><path class="cls-5" d="M136.76,27.87a1.85,1.85,0,1,1-3.7,0v-26a1.85,1.85,0,1,1,3.7,0Z"/><path class="cls-5" d="M153.81,24.29l5.29-12.82a1.86,1.86,0,0,1,2.4-1,1.78,1.78,0,0,1,1,2.4l-10.42,24.9a1.79,1.79,0,1,1-3.29-1.38l3-7.41L145.1,12.82a1.84,1.84,0,1,1,3.46-1.22Z"/></g></g></svg>